# xmcd
#
# Track frame offsets:
#	150
#	13667
#	28826
#	44980
#	61475
#	80434
#	95792
#	106477
#	122585
#	138551
#	154314
#	168076
#	184027
#	199613
#	216105
#	235362
#	255287
#	266695
#	282567
#	304248
#
# Disc length: 4286 seconds
#
# Revision: 0
# Processed by: cddbd v1.5.2PL0 Copyright (c) Steve Scherf et al.
# Submitted via: EasyCDDAExtractor 16.0.6.1
#
DISCID=2a10bc14
DTITLE=Συλλογικός δίσκος - Σαράντα χρόνια-πρώτη επιλογή-Μ. Θεοδωράκης 1
DYEAR=2003
DGENRE=Έντεχνη λαϊκή
TTITLE0=Λίντα Μαίρη - Αν θυμηθείς τ' όνειρό μου [1960, Ν. Γκάτσου, μπζ . Μ. Χι
TTITLE0=ώτης]
TTITLE1=Μπιθικώτσης Γρηγόρης - Μέρα Μαγιού [1960, Γ. Ρίτσου Επιτάφιος, μπζ. Μ.
TTITLE1=Χιώτης]
TTITLE2=Μπιθικώτσης Γρηγόρης - Μάννα μου και Παναγιά [Τάσου Λειβαδίτη Πολιτεία
TTITLE2=]
TTITLE3=Μπιθικώτσης Γρηγόρης - Δραπετσώνα [Τάσου Λειβαδίτη]
TTITLE4=Καζαντζίδης Στέλιος-Μαρινέλλα - Παράπονο [1960, Δημήτρη Χριστοδούλου,Π
TTITLE4=ολιτεία, μπζ. Μ. Χιώτης]
TTITLE5=Μπιθικώτσης Γρηγόρης - Άρνηση (Στο περιγιάλι το κρυφό) [Γ. Σεφέρη]
TTITLE6=Μπιθικώτσης Γρηγόρης - Κράτησα τη ζωή μου [1961, Γ. Σεφέρη, Επιφάνια]
TTITLE7=Θεοδωράκης Μίκης - Όμορφη πόλη (Θα γίνεις δικιά μου) [1960, Γ. Θεοδωρά
TTITLE7=κη, Λιποτ., μπ. Μ.Χιώτης]
TTITLE8=Μερκούρη Μελίνα - Αγάπη μου (Φαίδρα) [1962, Γ. Θεοδωράκη]
TTITLE9=Μπιθικώτσης Γρηγόρης - Της ξενιτιάς (Φεγγάρι μάγια μού 'κανες) [1962, 
TTITLE9=Ερρίκου Θαλασσινού]
TTITLE10=Μπιθικώτσης Γρηγόρης - Απρίλης [1960, Μ. Θεοδωράκη, Τρ. νεκρού αδελφο
TTITLE10=ύ]
TTITLE11=Λίδια Γιώτα - Κοιμήσου αγγελούδι μου (Νανούρισμα) [1962, Κ. Βίρβου, τ
TTITLE11=ρ νεκρού αδελφού]
TTITLE12=Μπιθικώτσης Γρηγόρης - Γωνιά-γωνιά [Δημήτρη Χριστοδούλου]
TTITLE13=Μπιθικώτσης Γρηγόρης - Οι μοιραίοι [1964, Κώστα Βάρναλη, Πολιτεία β]
TTITLE14=Γιαννακοπούλου Ντόρα - Μαρίνα [Ο. Ελύτη]
TTITLE15=Γιαννακοπούλου Ντόρα - Ο κήπος έμπαινε στη θάλασσα [1963, Ο. Ελύτη, Μ
TTITLE15=ικρές Κυκλάδες]
TTITLE16=Άνευ ερμηνευτού - Οι χαρταετοί [1963, σόλο μπζ. Γιώργος Ζαμπέτας]
TTITLE17=Μπιθικώτσης Γρηγόρης-χορωδία - Ένα το χελιδόνι [1960-63, Ο. Ελύτη, Άξ
TTITLE17=ιον εστί]
TTITLE18=Μπιθικώτσης Γρηγόρης-χορωδία - Της δικαιοσύνης Ήλιε νοητέ [Ο. Ελύτη]
TTITLE19=Μπιθικώτσης Γρηγόρης-χορωδία - Της αγάπης αίματα [1964, Ο. Ελύτη, Άξι
TTITLE19=ον εστί]
EXTD=
EXTT0=
EXTT1=
EXTT2=
EXTT3=
EXTT4=
EXTT5=
EXTT6=
EXTT7=
EXTT8=
EXTT9=
EXTT10=
EXTT11=
EXTT12=
EXTT13=
EXTT14=
EXTT15=
EXTT16=
EXTT17=
EXTT18=
EXTT19=
PLAYORDER=
